<?xml version="1.0" encoding="UTF-8" standalone="no"?>
<!-- Created with Inkscape (http://www.inkscape.org/) -->

<svg
   xmlns:dc="http://purl.org/dc/elements/1.1/"
   xmlns:cc="http://creativecommons.org/ns#"
   xmlns:rdf="http://www.w3.org/1999/02/22-rdf-syntax-ns#"
   xmlns:svg="http://www.w3.org/2000/svg"
   xmlns="http://www.w3.org/2000/svg"
   xmlns:sodipodi="http://sodipodi.sourceforge.net/DTD/sodipodi-0.dtd"
   xmlns:inkscape="http://www.inkscape.org/namespaces/inkscape"
   width="3.2350709mm"
   height="2.8790481mm"
   viewBox="0 0 11.46285 10.201352"
   id="svg19726"
   version="1.1"
   inkscape:version="0.91 r13725"
   sodipodi:docname="running-icon.svg">
  <defs
     id="defs19728" />
  <sodipodi:namedview
     id="base"
     pagecolor="#ffffff"
     bordercolor="#666666"
     borderopacity="1.0"
     inkscape:pageopacity="0.0"
     inkscape:pageshadow="2"
     inkscape:zoom="63.356767"
     inkscape:cx="8.6724206"
     inkscape:cy="5.45187"
     inkscape:document-units="px"
     inkscape:current-layer="layer1"
     showgrid="false"
     fit-margin-top="0"
     fit-margin-left="0"
     fit-margin-right="0"
     fit-margin-bottom="0"
     inkscape:window-width="1920"
     inkscape:window-height="1017"
     inkscape:window-x="1912"
     inkscape:window-y="-8"
     inkscape:window-maximized="1" />
  <metadata
     id="metadata19731">
    <rdf:RDF>
      <cc:Work
         rdf:about="">
        <dc:format>image/svg+xml</dc:format>
        <dc:type
           rdf:resource="http://purl.org/dc/dcmitype/StillImage" />
        <dc:title></dc:title>
      </cc:Work>
    </rdf:RDF>
  </metadata>
  <g
     inkscape:label="Layer 1"
     inkscape:groupmode="layer"
     id="layer1"
     transform="translate(985.73143,-432.97581)">
    <path
       inkscape:export-ydpi="102.07"
       inkscape:export-xdpi="102.07"
       sodipodi:nodetypes="sssssssccccccccccccccccssccccs"
       d="m -974.87348,434.37581 c 0,0.7732 -0.6268,1.4 -1.4,1.4 -0.7732,0 -1.4,-0.6268 -1.4,-1.4 0,-0.7732 0.6268,-1.4 1.4,-1.4 0.7732,0 1.4,0.6268 1.4,1.4 z m -7.066,0.421 c -0.8008,0 -0.8008,1.20118 0,1.20118 l 2.3691,0 -2.6172,2.61718 -2.7832,0 c -1.0142,-0.0143 -1.0142,1.51434 0,1.5 l 3.0938,0 c 0.1991,4.7e-4 0.3902,-0.0782 0.5312,-0.21875 l 1.0313,-1.03127 0.916,0.91406 -2.1035,2.10354 c -0.707,0.70833 0.3555,1.76888 1.0625,1.06055 l 2.6328,-2.63284 c 0.2927,-0.2929 0.2927,-0.76765 0,-1.06054 l -0.791,-0.79102 1.1348,-1.13474 0.4941,0.49414 c 0.1124,0.11242 0.2648,0.17564 0.4238,0.17578 l 1.6758,0 c 0.8008,0 0.8008,-1.20117 0,-1.20117 l -1.4277,0 -0.8223,-0.82227 -0.998,-0.99805 c -0.1124,-0.11244 -0.2649,-0.17567 -0.4239,-0.17578 z"
       style="color:#000000;clip-rule:nonzero;display:inline;overflow:visible;visibility:visible;opacity:1;isolation:auto;mix-blend-mode:normal;color-interpolation:sRGB;color-interpolation-filters:linearRGB;solid-color:#000000;solid-opacity:1;fill:#000000;fill-opacity:1;fill-rule:nonzero;stroke:none;stroke-width:1.5;stroke-linecap:round;stroke-linejoin:round;stroke-miterlimit:4;stroke-dasharray:none;stroke-dashoffset:0;stroke-opacity:1;color-rendering:auto;image-rendering:auto;shape-rendering:auto;text-rendering:auto;enable-background:accumulate"
       id="circle11059-4-2"
       inkscape:connector-curvature="0" />
  </g>
</svg>
